#N canvas 1502 -280 953 807 10;
#X obj 20 48 widget-spinConnect \$0;
#X msg 139 593 TabPlaneDragger;
#X obj 82 589 symbol;
#X msg 139 576 TabBoxDragger;
#X msg 139 560 TranslateAxisDragger;
#X msg 139 543 TrackballDragger;
#X msg 139 526 Translate2DDragger;
#X obj 76 712 s \$0-to-SPIN;
#X msg 145 492 NULL;
#X msg 578 570 /cube debug;
#X obj 56 122 bng 20 250 50 0 empty empty empty 25 11 0 12 -262144
-1 -1;
#X msg 571 538 debug scenegraph;
#X msg 139 620 TabBoxTrackballDragger;
#X msg 139 660 Translate1DDrager;
#X msg 139 637 TabPlaneTrackballDragger;
#N canvas 499 74 614 703 to-azim-elev 0;
#X obj 333 376 expr sqrt($f1);
#X obj 333 348 + 0;
#X obj 88 323 * 0;
#X obj 353 286 * 0;
#X msg 360 512 0;
#X msg 243 275 -1;
#X msg 278 275 1;
#X obj 52 259 expr ($f1-0.5)/0.5;
#X obj 243 155 expr ($f1-0.5)/0.5;
#X obj 52 26 inlet;
#X obj 314 643 outlet;
#X obj 360 441 expr 90 - ($f1*90.0);
#X obj 360 486 moses 0;
#X obj 243 248 moses 0;
#X obj 52 289 t f f f;
#X obj 243 189 t f f f;
#X text 111 26 float x \, float y;
#X obj 333 403 t f f;
#X obj 52 109 unpack f f;
#X msg 52 69 \$2 \$1;
#X obj 52 515 expr -acos($f1/$f3) * 180 / 3.1415 * $f2;
#X obj 314 621 pack 0 0;
#X text 376 621 azim elev;
#X connect 0 0 17 0;
#X connect 1 0 0 0;
#X connect 2 0 1 0;
#X connect 3 0 1 1;
#X connect 4 0 21 1;
#X connect 5 0 20 1;
#X connect 6 0 20 1;
#X connect 7 0 14 0;
#X connect 8 0 15 0;
#X connect 9 0 19 0;
#X connect 11 0 12 0;
#X connect 12 0 4 0;
#X connect 12 1 21 1;
#X connect 13 0 5 0;
#X connect 13 1 6 0;
#X connect 14 0 20 0;
#X connect 14 1 2 0;
#X connect 14 2 2 1;
#X connect 15 0 13 0;
#X connect 15 1 3 0;
#X connect 15 2 3 1;
#X connect 17 0 20 2;
#X connect 17 1 11 0;
#X connect 18 0 7 0;
#X connect 18 1 8 0;
#X connect 19 0 18 0;
#X connect 20 0 21 0;
#X connect 21 0 10 0;
#X restore 731 453 pd to-azim-elev;
#X obj 731 432 pack f f;
#X obj 731 495 s \$0-to-SPIN;
#X msg 731 474 /ptr setOrientation \$2 0 \$1;
#X obj 691 267 grid grid1 144 0 1 144 0 1 0 0.001 0.001 10 10 754 242
;
#X obj 691 340 cnv 1 144 1 empty empty empty 74 8 1 8 -16662 -4160
0;
#X obj 764 267 cnv 1 1 144 empty empty empty 20 12 0 14 -16662 -262144
0;
#X obj 780 640 tgl 25 0 empty empty empty 17 7 0 10 -262144 -1 -1 0
1;
#X msg 780 668 /ptr manipulate \$1;
#X obj 754 709 s \$0-to-SPIN;
#X obj 687 642 tgl 25 0 empty empty empty 17 7 0 10 -262144 -1 -1 1
1;
#X msg 687 670 /ptr grab \$1;
#X obj 705 536 key;
#X obj 780 606 sel 1;
#X msg 840 640 /ptr slide \$1;
#X obj 840 616 stepperGUI;
#X obj 780 586 == 109;
#X text 822 586 m;
#X obj 750 535 tgl 15 1 empty empty empty 17 7 0 10 -262144 -1 -1 1
1;
#X obj 700 606 sel 1;
#X text 745 586 g;
#X obj 700 586 == 103;
#X obj 705 557 spigot;
#X obj 364 585 tgl 15 0 empty empty empty 17 7 0 10 -262144 -1 -1 0
1;
#X msg 363 612 /ptr setVisible \$1;
#X msg 76 687 /cube setManipulator \$1;
#X obj 543 602 s \$0-to-SPIN-TCP;
#X obj 12 451 cnv 15 100 60 empty \$0-cnv intersectsWith:cube 20 12
0 14 -233017 -66577 0;
#X text 236 549 <--;
#X obj 597 16 widget-nodeEditor \$0;
#X obj 305 745 s \$0-to-SPIN-TCP;
#N canvas 579 22 824 644 setup_scene 0;
#X msg 443 490 createNode grid GridNode;
#X obj 354 604 s \$0-to-SPIN-TCP;
#X obj 376 96 t b b;
#X obj 313 29 inlet;
#X obj 213 20 r \$0-reset;
#X obj 363 133 delay 50;
#X msg 429 132 createNode ptr PointerNode;
#X obj 313 50 t b b b b;
#X obj 658 518 makeCube \$0 0 5 0;
#X obj 475 209 userReg;
#X obj 68 151 thisdir;
#X obj 32 124 bng 15 250 50 0 empty empty empty 17 7 0 10 -262144 -1
-1;
#X msg 501 402 /\$1 setVelocity 0 0 0 \, /\$1 setTranslation 0 -5 0.5
\, /\$1 setOrientation 0 0 0;
#X msg 504 337 /\$1 setVelocity 0 0 0;
#X msg 470 563 /padTarget setRenderBin 10;
#X msg 475 589 /target-guide.png setRenderBin 10;
#X obj 222 185 tgl 15 0 empty empty empty 17 7 0 10 -262144 -1 -1 0
1;
#X obj 218 161 t b s;
#X obj 103 205 pack 0 s;
#X msg 78 237 createNode floor ShapeNode \, /floor setShape 6 \, /floor
setOrientation -90 0 0 \, /floor setTranslation 0 0 -0.1 \, /floor
setScale 100 100 100 \, /floor setStateSetFromFile \$2/Resources/floor.jpg
\, /floor.jpg setLighting 0 \, /floor.jpg setRenderBin \$1;
#X obj 136 179 + 10;
#X msg 48 430 createNode padGuide ShapeNode \, /padGuide setShape 6
\, /padGuide setOrientation -90 0 0 \, /padGuide setTranslation 3 0
-0.03 \, /padGuide setScale 3.5 1 2 \, /padGuide setStateSetFromFile
\$1/Resources/target-target.png \, /target-target.png setLighting 0
\, /target-target.png setRenderBin 11;
#X msg 42 324 createNode padTarget ShapeNode \, /padTarget setShape
6 \, /padTarget setOrientation -90 0 0 \, /padTarget setTranslation
-3 -0.1 -0.03 \, /padTarget setScale 3.5 1 2 \, /padTarget setStateSetFromFile
\$1/Resources/target-guide.png \, /target-guide.png setLighting 0 \,
/target-guide.png setRenderBin 11;
#X msg 460 248 /ptr setParent \$1 \, /ptr setTranslation 0 0 -0.25
\, /ptr setOrientation 0 0 0 \, /ptr setThickness 0.02;
#X msg 25 539 createNode light1 LightSource \, /light1 setOrientation
-90 0 0 \, /light1 setTranslation 0 -10 50 \, /light1 setAmbient 1
1 1 1 \, /light1 setDiffuse 1 1 1 1 \, /light1 setSpecular 1 1 1 1
\, /light1 setAttenuation 0.01 \, /light1 setCutof 90 \, /light1 setExponent
3;
#X msg 447 171 /ptr setSearchLevel 1;
#X connect 0 0 1 0;
#X connect 2 0 5 0;
#X connect 2 1 6 0;
#X connect 3 0 7 0;
#X connect 4 0 7 0;
#X connect 5 0 9 0;
#X connect 5 0 25 0;
#X connect 6 0 1 0;
#X connect 7 1 10 0;
#X connect 7 3 2 0;
#X connect 9 0 23 0;
#X connect 9 0 13 0;
#X connect 10 0 22 0;
#X connect 10 0 21 0;
#X connect 10 0 17 0;
#X connect 10 0 24 0;
#X connect 11 0 10 0;
#X connect 13 0 1 0;
#X connect 14 0 1 0;
#X connect 15 0 1 0;
#X connect 16 0 20 0;
#X connect 17 0 16 0;
#X connect 17 1 18 1;
#X connect 18 0 19 0;
#X connect 19 0 1 0;
#X connect 20 0 18 0;
#X connect 21 0 1 0;
#X connect 22 0 1 0;
#X connect 23 0 1 0;
#X connect 24 0 1 0;
#X connect 25 0 1 0;
#X restore 56 146 pd setup_scene;
#X symbolatom 363 113 10 0 0 0 - - -;
#X obj 363 47 vradio 20 1 0 2 empty empty empty 0 -8 0 10 -261234 -1
-1 0;
#X text 387 49 dragon;
#X text 387 68 posture;
#X obj 363 92 userReg;
#X obj 43 213 bng 15 250 50 0 empty empty empty 17 7 0 10 -262144 -1
-1;
#X msg 244 709 /dragon setOrientationMode 3 \, /dragon setVelocityMode
1;
#X obj 23 8 cnv 15 15 15 empty empty SPIN-3DUI-Experimental.Setup 0
12 1 32 -262144 -66577 0;
#X text 131 193 \$0 id sh tex x y z p r y sx sy sz;
#X text 347 334 arms;
#X obj 78 214 manipObj \$0 1 2 1.jpg -4 0 1 0 0 0 1 1 2;
#X obj 515 47 nbx 5 20 -1e+37 1e+37 0 0 empty error1 error1: -50 10
0 12 -62715 -203904 -1 3.32886 256;
#X obj 515 69 nbx 5 20 -1e+37 1e+37 0 0 empty error2 error2: -50 10
0 12 -97433 -13381 -1 0 256;
#X obj 515 91 nbx 5 20 -1e+37 1e+37 0 0 empty error3 error3: -50 10
0 12 -258113 -86277 -1 0 256;
#X obj 515 113 nbx 5 20 -1e+37 1e+37 0 0 empty error4 error4: -50 10
0 12 -260097 -86853 -1 0 256;
#X obj 515 135 nbx 5 20 -1e+37 1e+37 0 0 empty error5 error5: -50 10
0 12 -261249 -1 -1 0 256;
#X obj 515 157 nbx 5 20 -1e+37 1e+37 0 0 empty error6 error6: -50 10
0 12 -257985 -1 -1 0 256;
#X obj 325 214 bng 15 250 50 0 empty empty empty 17 7 0 10 -262144
-1 -1;
#X obj 327 240 bng 15 250 50 0 empty empty empty 17 7 0 10 -262144
-1 -1;
#N canvas 0 22 450 300 intersection-debug-print 0;
#X obj 164 74 r \$0-from-SPIN;
#X obj 164 96 OSCparse /ptr;
#X obj 164 117 route intersectsWith;
#X obj 165 140 list2symbol;
#X obj 165 182 s \$0-cnv;
#X msg 165 161 label intersectsWith:\$1;
#X connect 0 0 1 0;
#X connect 1 0 2 0;
#X connect 2 0 3 0;
#X connect 3 0 5 0;
#X connect 5 0 4 0;
#X restore 12 433 pd intersection-debug-print;
#X msg 552 286 /shp1 debug;
#X obj 513 348 s \$0-to-SPIN-TCP;
#X msg 568 323 debug scenegraph;
#X msg 266 680 /posture setOrientationMode 3 \, /posture setVelocityMode
1;
#X msg 526 261 /shp1_const debug;
#X obj 69 188 bng 15 250 50 0 empty empty empty 17 7 0 10 -262144 -1
-1;
#X obj 268 404 vradio 15 1 0 5 empty empty empty 0 -8 0 10 -262144
-1 -1 2;
#X msg 267 493 /shp1_const setInteractionMode \$1;
#X msg 494 495 /shp1_g setInteractionMode \$1;
#X msg 400 379 /shp1 setInteractionMode \$1;
#X msg 332 544 /ptr setSearchLevel 1;
#X obj 404 294 vradio 15 1 0 5 empty empty empty 0 -8 0 10 -262144
-1 -1 0;
#X text 425 292 STATIC;
#X text 425 324 SELECT;
#X text 425 339 DRAG;
#X text 425 354 THROW;
#X text 425 308 PASSTHRU;
#X obj 483 403 vradio 15 1 0 5 empty empty empty 0 -8 0 10 -262144
-1 -1 0;
#X text 289 402 STATIC;
#X text 289 434 SELECT;
#X text 289 449 DRAG;
#X text 289 464 THROW;
#X text 289 418 PASSTHRU;
#X text 503 402 STATIC;
#X text 503 433 SELECT;
#X text 503 448 DRAG;
#X text 503 463 THROW;
#X text 503 418 PASSTHRU;
#X obj 85 335 manipObj \$0 5 2 5.jpg -3 0 5 0 0 0 4 1 1;
#X obj 80 240 manipObj \$0 2 2 2.jpg -2 0 1 0 0 0 1 1 2;
#X obj 82 277 manipObj \$0 3 2 3.jpg -3 0 2.5 0 0 0 3 1 1;
#X obj 91 307 manipObj \$0 4 2 4.jpg -3 0 3.75 0 0 0 1.5 1 1.5;
#X obj 58 363 manipObj \$0 6 1 smiley.png -3 0 6.5 0 0 90 1 2 2;
#X connect 1 0 2 0;
#X connect 2 0 40 0;
#X connect 3 0 2 0;
#X connect 4 0 2 0;
#X connect 5 0 2 0;
#X connect 6 0 2 0;
#X connect 8 0 2 0;
#X connect 9 0 41 0;
#X connect 10 0 46 0;
#X connect 11 0 41 0;
#X connect 12 0 2 0;
#X connect 13 0 2 0;
#X connect 14 0 2 0;
#X connect 15 0 18 0;
#X connect 16 0 15 0;
#X connect 18 0 17 0;
#X connect 19 0 16 0;
#X connect 19 1 16 1;
#X connect 22 0 23 0;
#X connect 23 0 24 0;
#X connect 25 0 26 0;
#X connect 26 0 24 0;
#X connect 27 0 37 0;
#X connect 28 0 22 0;
#X connect 29 0 24 0;
#X connect 30 0 29 0;
#X connect 31 0 28 0;
#X connect 33 0 37 1;
#X connect 34 0 25 0;
#X connect 36 0 34 0;
#X connect 37 0 31 0;
#X connect 37 0 36 0;
#X connect 38 0 39 0;
#X connect 39 0 41 0;
#X connect 40 0 7 0;
#X connect 48 0 51 0;
#X connect 51 0 47 0;
#X connect 52 0 57 0;
#X connect 52 0 95 0;
#X connect 52 0 96 0;
#X connect 52 0 97 0;
#X connect 52 0 98 0;
#X connect 52 0 99 0;
#X connect 53 0 45 0;
#X connect 64 0 57 1;
#X connect 65 0 96 1;
#X connect 67 0 68 0;
#X connect 69 0 68 0;
#X connect 70 0 45 0;
#X connect 71 0 68 0;
#X connect 72 0 57 0;
#X connect 73 0 74 0;
#X connect 74 0 41 0;
#X connect 75 0 41 0;
#X connect 76 0 41 0;
#X connect 77 0 41 0;
#X connect 78 0 76 0;
#X connect 84 0 75 0;
