#N canvas 58 110 1382 790 10;
#X obj 112 28 inlet;
#X obj 46 60 bng 15 250 50 0 empty empty empty 17 7 0 10 -262144 -1
-1;
#X obj 173 750 s \$1-to-SPIN-TCP;
#X obj 251 57 thisdir;
#X obj 251 37 loadbang;
#X obj 230 38 bng 15 250 50 0 empty empty empty 17 7 0 10 -262144 -1
-1;
#X msg -77 523 /shadow-square.png setLighting 0 \, /shadow-square.png
setTextureBlend 0;
#X obj -40 447 expr $f2+50;
#X msg 43 364 \$2;
#X obj 169 130 list prepend;
#X text 482 143 path id shape texture x y z pitch roll yaw sx sy sz
;
#X text 482 131 1____2__3_____4_______5_6_7_8_____9____10__11_12_13
;
#X obj 170 105 list \$2 \$3 \$4 \$5 \$6 \$7 \$8 \$9 \$10 \$11 \$12
\$13;
#N canvas 318 89 1122 440 shadow_updater 0;
#X obj 173 50 r \$1-from-SPIN;
#X obj 173 72 OSCparse /shp\$2;
#X obj 174 93 route global6DOF;
#X msg 32 171 setTranslation \$1 \$2 \$3;
#X obj 184 305 OSCprepend /shp\$2_shadow;
#X obj 253 373 s \$1-to-SPIN;
#X text 169 25 shadow updater:;
#X msg 353 252 setColor 1 1 1 \$1;
#X obj 353 274 OSCprepend /shp\$2_shadow_img;
#X msg 201 138 \$3;
#X obj 201 160 moses 0.5;
#X obj 207 230 * \$11;
#X obj 209 208 t f f;
#X obj 247 230 * \$12;
#X obj 287 230 * \$13;
#X obj 202 257 pack 0 0 0;
#X msg 204 276 setScale \$1 \$2 \$3;
#X obj 203 184 expr 1.3+pow(abs($f1-0.5) \, 1.0000001)/4;
#X obj 347 211 expr 1/(1+abs($f1-0.5));
#X obj 690 51 r \$1-from-SPIN;
#X obj 691 94 route global6DOF;
#X msg 549 172 setTranslation \$1 \$2 \$3;
#X obj 770 374 s \$1-to-SPIN;
#X msg 870 253 setColor 1 1 1 \$1;
#X msg 718 139 \$3;
#X obj 718 161 moses 0.5;
#X obj 724 231 * \$11;
#X obj 726 209 t f f;
#X obj 764 231 * \$12;
#X obj 804 231 * \$13;
#X obj 719 258 pack 0 0 0;
#X msg 721 277 setScale \$1 \$2 \$3;
#X obj 720 185 expr 1.3+pow(abs($f1-0.5) \, 1.0000001)/4;
#X obj 864 212 expr 1/(1+abs($f1-0.5));
#X obj 690 73 OSCparse /shp\$2_g;
#X obj 701 306 OSCprepend /shp\$2_g_shadow;
#X obj 870 275 OSCprepend /shp\$2_g_shadow_img;
#X obj 453 133 distance3D;
#X obj 510 20 loadbang;
#X obj 510 42 f \$5;
#X obj 510 62 + 6;
#X obj 510 84 list append \$6 \$7;
#X obj 464 21 bng 15 250 50 0 empty empty empty 17 7 0 10 -262144 -1
-1;
#X msg 453 108 \$1 \$2 \$3;
#X obj 454 153 s error\$2;
#X connect 0 0 1 0;
#X connect 1 0 2 0;
#X connect 2 0 3 0;
#X connect 2 0 9 0;
#X connect 2 0 43 0;
#X connect 3 0 4 0;
#X connect 4 0 5 0;
#X connect 7 0 8 0;
#X connect 8 0 5 0;
#X connect 9 0 10 0;
#X connect 10 1 17 0;
#X connect 10 1 18 0;
#X connect 11 0 15 0;
#X connect 12 0 11 0;
#X connect 12 1 13 0;
#X connect 12 1 14 0;
#X connect 13 0 15 1;
#X connect 14 0 15 2;
#X connect 15 0 16 0;
#X connect 16 0 4 0;
#X connect 17 0 12 0;
#X connect 18 0 7 0;
#X connect 19 0 34 0;
#X connect 20 0 21 0;
#X connect 20 0 24 0;
#X connect 21 0 35 0;
#X connect 23 0 36 0;
#X connect 24 0 25 0;
#X connect 25 1 32 0;
#X connect 25 1 33 0;
#X connect 26 0 30 0;
#X connect 27 0 26 0;
#X connect 27 1 28 0;
#X connect 27 1 29 0;
#X connect 28 0 30 1;
#X connect 29 0 30 2;
#X connect 30 0 31 0;
#X connect 31 0 35 0;
#X connect 32 0 27 0;
#X connect 33 0 23 0;
#X connect 34 0 20 0;
#X connect 35 0 22 0;
#X connect 36 0 22 0;
#X connect 37 0 44 0;
#X connect 38 0 39 0;
#X connect 39 0 40 0;
#X connect 40 0 41 0;
#X connect 41 0 37 1;
#X connect 42 0 39 0;
#X connect 43 0 37 0;
#X restore 412 41 pd shadow_updater;
#X obj 750 704 s \$1-to-SPIN-TCP;
#X obj 767 218 t a a a;
#X msg 882 553 /shadow-square.png setLighting 0 \, /shadow-square.png
setTextureBlend 0;
#X text 847 250 GUIDE:;
#X obj 179 160 t a a;
#X obj -40 468 pack 0 0;
#X msg -40 488 /shp\$2_shadow_img setRenderBin \$1;
#X obj 47 440 pack 0 0;
#X msg 47 461 /shp\$2_g_shadow_img setRenderBin \$1;
#X obj 47 418 expr $f2+70;
#X obj -21 301 t a a;
#X msg 409 473 \$2;
#X obj 393 533 pack 0 0 0;
#X msg 558 476 \$13;
#X obj 565 511 expr $f1/2;
#X obj 372 500 expr ($f2*3) - 8;
#X text 484 162 SAME for object args \, except \$1 is \$0 from parent
;
#X obj 971 604 inlet;
#X msg 971 628 debug;
#X obj 946 667 OSCprepend /shp\$2;
#X msg 369 585 createNode shp\$2_shadow ConstraintsNode \, /shp\$2_shadow
setConstraintMode 0 \, /shp\$2_shadow setCubeSize 1000 1000 0 \, /shp\$2_shadow
setCubeOffset 0 0 -0.0\$2;
#X msg 1098 624 debug;
#X obj 1073 663 OSCprepend /shp\$2_shadow;
#X msg 335 638 createNode shp\$2_shadow_img ShapeNode \, /shp\$2_shadow_img
setParent shp\$2_shadow \, /shp\$2_shadow_img setShape 6 \, /shp\$2_shadow_img
setStateSetFromFile \$1/Resources/shadow-square.png \, /shp\$2_shadow_img
setOrientation -90 0 0 \, /shp\$2_shadow_img setScale 1 1 1;
#X msg 899 455 createNode shp\$2_g_shadow_img ShapeNode \, /shp\$2_g_shadow_img
setParent shp\$2_g_shadow \, /shp\$2_g_shadow_img setShape 6 \, /shp\$2_g_shadow_img
setStateSetFromFile \$1/Resources/shadow-square.png \, /shp\$2_g_shadow_img
setOrientation -90 0 0 \, /shp\$2_g_shadow_img setScale 1 1 1;
#X obj 112 58 t b b;
#X obj 306 227 t a a a a a a;
#X obj 888 25 r \$1-from-SPIN;
#X obj 888 47 OSCparse /ptr;
#X obj 892 80 route grab manipulate;
#X obj 897 128 sel 0;
#X obj 912 200 list prepend;
#X obj 913 175 list \$2 \$3 \$4 \$5 \$6 \$7 \$8 \$9 \$10 \$11 \$12
\$13;
#X obj 1071 133 thisdir;
#X obj 1071 113 loadbang;
#X obj 1050 114 bng 15 250 50 0 empty empty empty 17 7 0 10 -262144
-1 -1;
#X obj 855 97 bng 15 250 50 0 empty empty empty 17 7 0 10 -262144 -1
-1;
#X msg 921 232 /shp\$2_g setTranslation \$5 \$6 \$7 \, /shp\$2_g setOrientation
\$8 \$9 \$10 \, /shp\$2_g setScale \$11 \$12 \$13;
#X obj 921 268 s \$1-to-SPIN-TCP;
#X text 870 7 reset guide pieces if moved:;
#X msg 482 65 createNode shp\$2 ShapeNode \, /shp\$2 setParent shp\$2_const
\, /shp\$2 setShape \$3 \, /shp\$2 setStateSetFromFile \$1/Resources/\$4
\, /shp\$2 setInteractionMode 1 \, /shp\$2 setReportMode 2;
#N canvas 1289 25 1399 800 OLD_CONSTRUCTOR 0;
#X obj 230 44 inlet;
#X obj 164 76 bng 15 250 50 0 empty empty empty 17 7 0 10 -262144 -1
-1;
#X obj 291 766 s \$1-to-SPIN-TCP;
#X obj 369 73 thisdir;
#X obj 369 53 loadbang;
#X obj 348 54 bng 15 250 50 0 empty empty empty 17 7 0 10 -262144 -1
-1;
#X msg 41 539 /shadow-square.png setLighting 0 \, /shadow-square.png
setTextureBlend 0;
#X obj 78 463 expr $f2+50;
#X msg 161 380 \$2;
#X obj 287 146 list prepend;
#X obj 288 121 list \$2 \$3 \$4 \$5 \$6 \$7 \$8 \$9 \$10 \$11 \$12
\$13;
#X obj 868 720 s \$1-to-SPIN-TCP;
#X obj 885 234 t a a a;
#X msg 1000 569 /shadow-square.png setLighting 0 \, /shadow-square.png
setTextureBlend 0;
#X obj 297 176 t a a;
#X obj 78 484 pack 0 0;
#X msg 78 504 /shp\$2_shadow_img setRenderBin \$1;
#X obj 165 456 pack 0 0;
#X msg 165 477 /shp\$2_g_shadow_img setRenderBin \$1;
#X obj 165 434 expr $f2+70;
#X obj 97 317 t a a;
#X msg 527 489 \$2;
#X obj 511 549 pack 0 0 0;
#X msg 676 492 \$13;
#X obj 683 527 expr $f1/2;
#X obj 490 516 expr ($f2*3) - 8;
#X obj 1089 620 inlet;
#X msg 1089 644 debug;
#X obj 1064 683 OSCprepend /shp\$2;
#X msg 487 601 createNode shp\$2_shadow ConstraintsNode \, /shp\$2_shadow
setConstraintMode 0 \, /shp\$2_shadow setCubeSize 1000 1000 0 \, /shp\$2_shadow
setCubeOffset 0 0 -0.0\$2;
#X msg 1216 640 debug;
#X obj 1191 679 OSCprepend /shp\$2_shadow;
#X msg 1021 414 createNode shp\$2_g_shadow ConstraintsNode \, /shp\$2_g_shadow
setConstraintMode 0 \, /shp\$2_g_shadow setCubeSize 1000 1000 0 \,
/shp\$2_g_shadow setCubeOffset 0 0 -0.0\$2;
#X msg 453 654 createNode shp\$2_shadow_img ShapeNode \, /shp\$2_shadow_img
setParent shp\$2_shadow \, /shp\$2_shadow_img setShape 6 \, /shp\$2_shadow_img
setStateSetFromFile \$1/Resources/shadow-square.png \, /shp\$2_shadow_img
setOrientation -90 0 0 \, /shp\$2_shadow_img setScale 1 1 1;
#X msg 1017 471 createNode shp\$2_g_shadow_img ShapeNode \, /shp\$2_g_shadow_img
setParent shp\$2_g_shadow \, /shp\$2_g_shadow_img setShape 6 \, /shp\$2_g_shadow_img
setStateSetFromFile \$1/Resources/shadow-square.png \, /shp\$2_g_shadow_img
setOrientation -90 0 0 \, /shp\$2_g_shadow_img setScale 1 1 1;
#X obj 230 74 t b b;
#X obj 424 243 t a a a a a a;
#X msg 512 573 /shp\$3_const setTranslation 8 \$1 \$2;
#X msg 519 266 createNode shp\$2_const ConstraintsNode \, /shp\$2_const
setCubeSize 100 100 50 \, /floorConstraint setCubeOffset 0 0 25 \,
/shp\$2_const setInteractionMode 3;
#X msg 533 389 /shp\$2_const setOrientation \$8 \$9 \$10 \, /shp\$2_const
setScale \$11 \$12 \$13 \, /shp\$2_const setReportMode 2 \, /shp\$2_const
setConstraintMode 2 \, /shp\$2_const setTarget floor;
#X msg 1026 323 createNode shp\$2_g ShapeNode \, /shp\$2_g setShape
\$3 \, /shp\$2_g setTranslation \$5 \$6 \$7 \, /shp\$2_g setOrientation
\$8 \$9 \$10 \, /shp\$2_g setScale \$11 \$12 \$13 \, /shp\$2_g setStateSetFromFile
\$1/Resources/\$4 \, /shp\$2_g setInteractionMode 3 \, /shp\$2_g setReportMode
2;
#X msg 524 319 createNode shp\$2 ShapeNode \, /shp\$2 setParent shp\$2_const
\, /shp\$2 setShape \$3 \, /shp\$2 setStateSetFromFile \$1/Resources/\$4
\, /shp\$2 setInteractionMode 1 \, /shp\$2 setReportMode 2;
#X connect 0 0 35 0;
#X connect 1 0 35 0;
#X connect 3 0 9 1;
#X connect 4 0 3 0;
#X connect 5 0 3 0;
#X connect 6 0 2 0;
#X connect 7 0 15 0;
#X connect 8 0 15 1;
#X connect 8 0 17 1;
#X connect 9 0 14 0;
#X connect 10 0 9 0;
#X connect 12 0 13 0;
#X connect 12 0 40 0;
#X connect 12 1 34 0;
#X connect 12 2 32 0;
#X connect 13 0 11 0;
#X connect 14 0 20 0;
#X connect 14 1 12 0;
#X connect 14 1 36 0;
#X connect 15 0 16 0;
#X connect 16 0 2 0;
#X connect 17 0 18 0;
#X connect 18 0 2 0;
#X connect 19 0 17 0;
#X connect 20 0 6 0;
#X connect 20 0 7 0;
#X connect 20 0 19 0;
#X connect 20 1 8 0;
#X connect 21 0 22 2;
#X connect 22 0 37 0;
#X connect 23 0 24 0;
#X connect 24 0 22 1;
#X connect 25 0 22 0;
#X connect 26 0 27 0;
#X connect 27 0 28 0;
#X connect 28 0 11 0;
#X connect 29 0 2 0;
#X connect 30 0 31 0;
#X connect 31 0 11 0;
#X connect 32 0 11 0;
#X connect 33 0 2 0;
#X connect 34 0 11 0;
#X connect 35 0 10 0;
#X connect 36 0 25 0;
#X connect 36 1 39 0;
#X connect 36 1 41 0;
#X connect 36 2 33 0;
#X connect 36 3 29 0;
#X connect 36 4 21 0;
#X connect 36 4 23 0;
#X connect 36 5 38 0;
#X connect 37 0 2 0;
#X connect 38 0 2 0;
#X connect 39 0 2 0;
#X connect 40 0 11 0;
#X connect 41 0 2 0;
#X restore 397 14 pd OLD_CONSTRUCTOR;
#X msg 406 303 createNode shp\$2 CollisionShape \, /shp\$2 setStateSetFromFile
\$1/Resources/\$4 \, /shp\$2 setInteractionMode 3 \, /shp\$2 setReportMode
2 \, /shp\$2 setOrientation \$8 \$9 \$10 \, /shp\$2 setScale \$11 \$12
\$13;
#X msg 394 557 /shp\$3 setTranslation 8 \$1 \$2;
#X msg 903 394 createNode shp\$2_g_shadow ConstraintsNode \, /shp\$2_g_shadow
setConstraintMode 0 \, /shp\$2_g_shadow setCubeSize 1000 1000 0 \,
/shp\$2_g_shadow setCubeOffset 0 0 -0.0\$2;
#X msg 895 318 createNode shp\$2_g ShapeNode \, /shp\$2_g setStateSetFromFile
\$1/Resources/\$4 \, /shp\$2_g setInteractionMode 3 \, /shp\$2_g setReportMode
2 \, /shp\$2_g setTranslation \$5 \$6 \$7 \, /shp\$2_g setOrientation
\$8 \$9 \$10 \, /shp\$2_g setScale \$11 \$12 \$13;
#N canvas 898 30 450 364 lock_camera_to_target 0;
#X obj 109 123 route setManipulator;
#X obj 112 173 eqsym NULL;
#X obj 100 89 OSCparse /shp\$2;
#X obj 103 207 sel 0;
#X obj 102 231 symbol shp\$2;
#X msg 102 263 /dragon setOrientationTarget \$1;
#X obj 99 305 s \$1-to-SPIN-TCP;
#X obj 85 50 r \$1-from-SPIN;
#X obj 111 146 symbol;
#X obj 62 219 tgl 15 0 empty empty empty 17 7 0 10 -262144 -1 -1 0
1;
#X connect 0 0 8 0;
#X connect 1 0 3 0;
#X connect 1 0 9 0;
#X connect 2 0 0 0;
#X connect 3 0 4 0;
#X connect 4 0 5 0;
#X connect 5 0 6 0;
#X connect 8 0 1 0;
#X restore 560 30 pd lock_camera_to_target;
#X connect 0 0 39 0;
#X connect 1 0 39 0;
#X connect 3 0 9 1;
#X connect 4 0 3 0;
#X connect 5 0 3 0;
#X connect 6 0 2 0;
#X connect 7 0 19 0;
#X connect 8 0 19 1;
#X connect 8 0 21 1;
#X connect 9 0 18 0;
#X connect 12 0 9 0;
#X connect 15 0 16 0;
#X connect 15 0 59 0;
#X connect 15 1 38 0;
#X connect 15 2 58 0;
#X connect 16 0 14 0;
#X connect 18 0 24 0;
#X connect 18 1 40 0;
#X connect 18 1 15 0;
#X connect 19 0 20 0;
#X connect 20 0 2 0;
#X connect 21 0 22 0;
#X connect 22 0 2 0;
#X connect 23 0 21 0;
#X connect 24 0 6 0;
#X connect 24 0 7 0;
#X connect 24 0 23 0;
#X connect 24 1 8 0;
#X connect 25 0 26 2;
#X connect 26 0 57 0;
#X connect 27 0 28 0;
#X connect 28 0 26 1;
#X connect 29 0 26 0;
#X connect 31 0 32 0;
#X connect 32 0 33 0;
#X connect 33 0 14 0;
#X connect 34 0 2 0;
#X connect 35 0 36 0;
#X connect 36 0 14 0;
#X connect 37 0 2 0;
#X connect 38 0 14 0;
#X connect 39 0 12 0;
#X connect 40 0 29 0;
#X connect 40 1 56 0;
#X connect 40 2 37 0;
#X connect 40 3 34 0;
#X connect 40 4 25 0;
#X connect 40 4 27 0;
#X connect 41 0 42 0;
#X connect 42 0 43 0;
#X connect 43 0 44 0;
#X connect 43 1 44 0;
#X connect 44 0 46 0;
#X connect 45 0 51 0;
#X connect 46 0 45 0;
#X connect 47 0 45 1;
#X connect 48 0 47 0;
#X connect 49 0 47 0;
#X connect 50 0 46 0;
#X connect 51 0 52 0;
#X connect 56 0 2 0;
#X connect 57 0 2 0;
#X connect 58 0 14 0;
#X connect 59 0 14 0;
