#N canvas 2225 -359 924 739 10;
#X obj 111 28 inlet;
#X obj 125 168 list \$2 \$3 \$4 \$5;
#X obj 46 60 bng 15 250 50 0 empty empty empty 17 7 0 10 -262144 -1
-1;
#X obj 25 576 s \$1-to-SPIN-TCP;
#X obj 257 176 thisdir;
#X obj 257 156 loadbang;
#X obj 236 157 bng 15 250 50 0 empty empty empty 17 7 0 10 -262144
-1 -1;
#X obj 125 193 list prepend;
#X obj 124 73 t b b b b;
#X msg 175 365 createNode shp\$2_shadow ConstraintsNode \, /shp\$2_shadow
setConstraintMode 0 \, /shp\$2_shadow setCubeSize 1000 1000 0;
#X obj 106 225 t a a a;
#X msg 184 281 createNode shp\$2 ShapeNode \, /shp\$2 setTranslation
\$3 \$4 \$5 \, /shp\$1 setOrientation 0 0 0 \, /shp\$2 setScale 1 1
1 \, /shp\$2 setStateSetFromFile \$1/Resources/\$2.jpg \, /shp\$2 setInteractionMode
2 \, /shp\$2 setReportMode 2;
#X obj 567 53 r \$1-from-SPIN;
#X obj 567 75 OSCparse /shp\$2;
#X obj 568 96 route global6DOF;
#X msg 426 174 setTranslation \$1 \$2 \$3;
#X obj 578 288 OSCprepend /shp\$2_shadow;
#X obj 647 376 s \$1-to-SPIN;
#X text 563 28 shadow updater:;
#X msg 598 209 setScale \$1 \$1 \$1;
#X msg 205 675 /shadow-square.png setTextureBlend 0;
#X obj 220 598 vradio 15 1 0 4 empty empty empty 0 -8 0 10 -262144
-1 -1 0;
#X msg 154 520 /shadow-square.png setLighting 0 \, /shadow-square.png
setTextureBlend 1;
#X msg 171 422 createNode shp\$2_shadow_img ShapeNode \, /shp\$2_shadow_img
setParent shp\$2_shadow \, /shp\$2_shadow_img setShape 6 \, /shp\$2_shadow_img
setStateSetFromFile \$1/Resources/shadow-square.png \, /shp\$2_shadow_img
setOrientation 90 0 0 \, /shp\$2_shadow_img setScale 1 1 1;
#X msg 747 255 setColor 1 1 1 \$1;
#X obj 747 277 OSCprepend /shp\$2_shadow_img;
#X msg 595 141 \$3;
#X obj 595 163 moses 0.5;
#X obj 741 214 expr 1/(1+abs($f1-0.5)/2);
#X obj 597 187 expr 1.3+pow(abs($f1-0.5) \, 1.0000001)/2;
#X connect 0 0 8 0;
#X connect 1 0 7 0;
#X connect 2 0 1 0;
#X connect 4 0 7 1;
#X connect 5 0 4 0;
#X connect 6 0 4 0;
#X connect 7 0 10 0;
#X connect 8 3 1 0;
#X connect 9 0 3 0;
#X connect 10 0 22 0;
#X connect 10 1 23 0;
#X connect 10 2 11 0;
#X connect 10 2 9 0;
#X connect 11 0 3 0;
#X connect 12 0 13 0;
#X connect 13 0 14 0;
#X connect 14 0 15 0;
#X connect 14 0 26 0;
#X connect 15 0 16 0;
#X connect 16 0 17 0;
#X connect 19 0 16 0;
#X connect 20 0 3 0;
#X connect 21 0 20 0;
#X connect 22 0 3 0;
#X connect 23 0 3 0;
#X connect 24 0 25 0;
#X connect 25 0 17 0;
#X connect 26 0 27 0;
#X connect 27 1 28 0;
#X connect 27 1 29 0;
#X connect 28 0 24 0;
#X connect 29 0 19 0;
