#N canvas 213 114 391 374 10;
#X obj 84 27 inlet;
#X obj 84 303 outlet;
#X obj 117 199 loadbang;
#X obj 117 220 hostname;
#X symbolatom 127 274 25 0 0 0 - - -;
#X obj 84 274 symbol;
#X obj 84 186 bng 15 250 50 0 empty empty empty 17 7 0 10 -262144 -1
-1;
#X obj 138 246 r G_USER;
#X msg 196 160 dragon;
#X obj 217 132 sel 0 1;
#X msg 246 160 posture;
#X obj 218 230 s G_USER;
#X obj 218 189 symbol;
#X obj 190 103 t b f;
#X obj 84 48 route bang symbol float;
#X connect 0 0 14 0;
#X connect 2 0 3 0;
#X connect 3 0 5 1;
#X connect 3 0 4 0;
#X connect 5 0 1 0;
#X connect 6 0 5 0;
#X connect 7 0 5 1;
#X connect 7 0 4 0;
#X connect 8 0 12 0;
#X connect 9 0 8 0;
#X connect 9 1 10 0;
#X connect 10 0 12 0;
#X connect 12 0 11 0;
#X connect 13 0 6 0;
#X connect 13 1 9 0;
#X connect 14 0 6 0;
#X connect 14 1 11 0;
#X connect 14 2 13 0;
